Coordinates
version=1
nRows=20
nColumns=30
inDegrees=yes

Units are S.I. units (second, meters, Newtons, ...)
Angles are in degrees.

endheader
time	floatyaw	floatroll	floatpitch	floatx	floaty	floatz	pro_sup_l	deviation_l	flexion_l	cmc_flexion_l	cmc_abduction_l	mp_flexion_l	ip_flexion_l	2mcp_flexion_l	2mcp_abduction_l	2pm_flexion_l	2md_flexion_l	3mcp_flexion_l	3mcp_abduction_l	3pm_flexion_l	3md_flexion_l	4mcp_flexion_l	4mcp_abduction_l	4pm_flexion_l	4md_flexion_l	5mcp_flexion_l	5mcp_abduction_l	5pm_flexion_l	5md_flexion_l
-0.995000	3.029614	-4.103828	101.268469	-0.102886	-0.207224	-0.045438	87.331908	1.318706	0.781010	16.603595	-0.662174	-22.462278	-35.523280	38.309191	8.378149	50.919862	33.962229	23.910823	4.526077	48.463820	30.116631	14.635180	-4.392142	61.378321	39.885625	9.889655	-9.829331	59.278147	39.728489
-0.985000	3.029614	-4.103828	101.268469	-0.102885	-0.207222	-0.045427	87.363701	1.338203	0.771250	16.579709	-0.693812	-22.479434	-35.525868	38.301972	8.360710	50.915906	33.957885	23.930203	4.523171	48.448946	30.103377	14.629435	-4.385715	61.364396	39.879307	9.881063	-9.816870	59.273829	39.725273
-0.975000	3.029614	-4.103828	101.268469	-0.102884	-0.207221	-0.045421	87.388238	1.356387	0.762568	16.566664	-0.709474	-22.502439	-35.537276	38.290779	8.344713	50.913244	33.957258	23.929896	4.522154	48.435982	30.097604	14.632036	-4.384055	61.346706	39.873690	9.861426	-9.801262	59.273481	39.727075
-0.965000	3.029614	-4.103828	101.268469	-0.102880	-0.207229	-0.045419	87.399582	1.366797	0.752687	16.567730	-0.706575	-22.529005	-35.557952	38.280332	8.335940	50.915979	33.962493	23.912040	4.524455	48.433297	30.104508	14.648728	-4.387835	61.329677	39.869910	9.834407	-9.783509	59.282010	39.735942
-0.955000	3.029614	-4.103828	101.268469	-0.102873	-0.207247	-0.045421	87.394228	1.364024	0.740677	16.583553	-0.689866	-22.556108	-35.586550	38.274402	8.337196	50.926772	33.974201	23.882037	4.531150	48.443248	30.124231	14.676643	-4.394850	61.318450	39.869811	9.811348	-9.770224	59.304112	39.752459
-0.945000	3.029614	-4.103828	101.268469	-0.102865	-0.207276	-0.045421	87.373725	1.347037	0.727472	16.611060	-0.669228	-22.580481	-35.619595	38.275184	8.346607	50.946051	33.991067	23.846166	4.542560	48.460098	30.151154	14.704853	-4.400716	61.316808	39.875144	9.807864	-9.771551	59.341604	39.774864
-0.935000	3.029614	-4.103828	101.268469	-0.102858	-0.207308	-0.045418	87.345313	1.320934	0.715439	16.643680	-0.654578	-22.599381	-35.652174	38.283416	8.357965	50.971882	34.010139	23.810692	4.557593	48.473103	30.176349	14.719534	-4.400818	61.325334	39.886422	9.835933	-9.795420	59.390953	39.798950
-0.925000	3.029614	-4.103828	101.268469	-0.102851	-0.207336	-0.045412	87.319302	1.295031	0.707331	16.673289	-0.650805	-22.611270	-35.679444	38.298597	8.363276	51.000570	34.027798	23.781812	4.573595	48.472860	30.191924	14.711057	-4.392609	61.340864	39.902151	9.896378	-9.841966	59.443009	39.819139
-0.915000	3.029614	-4.103828	101.268469	-0.102845	-0.207351	-0.045404	87.304116	1.277855	0.705145	16.693025	-0.655598	-22.615962	-35.698129	38.319039	8.356542	51.027792	34.041048	23.764894	4.587287	48.456843	30.194809	14.679185	-4.377053	61.357888	39.919166	9.977037	-9.902214	59.485923	39.830528
-0.905000	3.029614	-4.103828	101.268469	-0.102839	-0.207348	-0.045394	87.301965	1.272305	0.709345	16.699519	-0.661107	-22.614252	-35.707248	38.341829	8.336931	51.049863	34.048526	23.762694	4.596370	48.430695	30.187862	14.633760	-4.358444	61.371344	39.934005	10.058048	-9.961923	59.509888	39.830846
-0.895000	3.029614	-4.103828	101.268469	-0.102831	-0.207329	-0.045383	87.308036	1.274263	0.718794	16.693390	-0.658068	-22.607476	-35.707920	38.363153	8.309648	51.064763	34.050815	23.773786	4.600583	48.404907	30.177923	14.590795	-4.342690	61.379152	39.944474	10.120970	-10.007812	59.510938	39.821198
-0.885000	3.029614	-4.103828	101.268469	-0.102820	-0.207303	-0.045369	87.313701	1.275381	0.731349	16.677944	-0.639959	-22.597488	-35.702688	38.379488	8.283923	51.072719	34.050068	23.792559	4.601463	48.389370	30.172305	14.566157	-4.334881	61.382759	39.950351	10.156586	-10.032254	59.491923	39.805246
-0.875000	3.029614	-4.103828	101.268469	-0.102807	-0.207277	-0.045351	87.311633	1.267977	0.744663	16.657015	-0.605537	-22.586926	-35.694774	38.389545	8.269060	51.076112	34.049131	23.811095	4.601186	48.389166	30.175838	14.569868	-4.337299	61.385424	39.952889	10.167798	-10.034513	59.460666	39.787452
-0.865000	3.029614	-4.103828	101.268469	-0.102791	-0.207259	-0.045331	87.299821	1.249056	0.756644	16.633474	-0.559448	-22.578945	-35.687318	38.395741	8.270479	51.078497	34.050424	23.822376	4.601416	48.403459	30.189739	14.603545	-4.348876	61.389690	39.953635	10.166970	-10.019099	59.426582	39.771340
-0.855000	3.029614	-4.103828	101.268469	-0.102775	-0.207253	-0.045310	87.282773	1.221527	0.765357	16.609336	-0.511190	-22.575732	-35.682384	38.403674	8.287678	51.083007	34.054970	23.823635	4.602821	48.427265	30.212253	14.661707	-4.366344	61.395900	39.953500	10.169588	-9.992950	59.397239	39.758456
-0.845000	3.029614	-4.103828	101.268469	-0.102757	-0.207257	-0.045288	87.269806	1.192608	0.768619	16.586898	-0.472619	-22.576477	-35.679958	38.419331	8.314989	51.091035	34.062044	23.818207	4.605229	48.454399	30.240137	14.735471	-4.386207	61.402416	39.952568	10.187345	-9.962778	59.376202	39.748373
-0.835000	3.029614	-4.103828	101.268469	-0.102736	-0.207268	-0.045267	87.271318	1.170660	0.763880	16.569211	-0.454285	-22.576721	-35.677653	38.445602	8.344448	51.101980	34.069707	23.814463	4.608065	48.479771	30.269952	14.815899	-4.406049	61.406741	39.950497	10.223725	-9.933348	59.363053	39.739678
-0.825000	3.029614	-4.103828	101.268469	-0.102713	-0.207285	-0.045246	87.294210	1.161934	0.748919	16.558818	-0.461578	-22.570439	-35.671784	38.480411	8.369116	51.114065	34.075939	23.821791	4.610776	48.500168	30.298683	14.895100	-4.424392	61.406435	39.947061	10.273834	-9.907240	59.355438	39.731462
-0.815000	3.029614	-4.103828	101.268469	-0.102688	-0.207304	-0.045226	87.338088	1.168280	0.723315	16.555668	-0.492201	-22.554056	-35.659614	38.517762	8.385261	51.125524	34.079719	23.845540	4.613100	48.514024	30.323924	14.965586	-4.439715	61.399678	39.942511	10.328179	-9.886161	59.351678	39.724356
-0.805000	3.029614	-4.103828	101.268469	-0.102662	-0.207327	-0.045207	87.394092	1.186405	0.689759	16.556327	-0.536449	-22.529635	-35.641519	38.551058	8.392712	51.135512	34.081505	23.883781	4.615130	48.521163	30.344123	15.020063	-4.450055	61.386077	39.937776	10.378219	-9.872811	59.352030	39.720282
